<svg width="24" height="24" viewBox="0 0 24 24" fill="none" xmlns="http://www.w3.org/2000/svg">
<g id="eMAIL Settings">
<rect width="24" height="24" fill="white"/>
<path id="Icon" d="M10 19H5.25C4.00736 19 3 17.9553 3 16.6667V7.33333C3 6.04467 4.00736 5 5.25 5H18.75C19.9926 5 21 6.04467 21 7.33333M4.6875 6.75L11.3596 11.5403C11.7449 11.8168 12.2551 11.8168 12.6404 11.5403L19.3125 6.75M21 7.5V11" stroke="#7D7D7D" stroke-width="1.5" stroke-linecap="round" stroke-linejoin="round"/>
<g id="Icon_2">
<path fill-rule="evenodd" clip-rule="evenodd" d="M17.9313 12.7313C17.6938 11.7562 16.3062 11.7562 16.0687 12.7313C16.0333 12.8778 15.9637 13.0138 15.8657 13.1284C15.7677 13.243 15.6441 13.3328 15.5049 13.3905C15.3656 13.4482 15.2147 13.4723 15.0644 13.4607C14.9141 13.4491 14.7687 13.4022 14.6399 13.3238C13.7824 12.8013 12.8011 13.7825 13.3236 14.64C13.6611 15.1938 13.3618 15.9163 12.7317 16.0694C11.7561 16.3063 11.7561 17.6945 12.7317 17.9307C12.8783 17.9662 13.0144 18.0358 13.1289 18.1339C13.2435 18.2319 13.3333 18.3557 13.391 18.495C13.4487 18.6343 13.4726 18.7853 13.4609 18.9356C13.4492 19.086 13.4022 19.2314 13.3236 19.3601C12.8011 20.2176 13.7824 21.1989 14.6399 20.6764C14.7686 20.5978 14.9141 20.5508 15.0644 20.5391C15.2148 20.5274 15.3657 20.5514 15.5051 20.609C15.6444 20.6667 15.7681 20.7565 15.8662 20.8711C15.9642 20.9856 16.0338 21.1217 16.0693 21.2683C16.3062 22.2439 17.6944 22.2439 17.9307 21.2683C17.9663 21.1218 18.036 20.9858 18.134 20.8713C18.2321 20.7568 18.3558 20.6671 18.4951 20.6094C18.6344 20.5518 18.7853 20.5278 18.9356 20.5394C19.0859 20.551 19.2313 20.598 19.3601 20.6764C20.2176 21.1989 21.1989 20.2176 20.6764 19.3601C20.598 19.2314 20.551 19.0859 20.5394 18.9356C20.5278 18.7854 20.5518 18.6344 20.6094 18.4952C20.6671 18.3559 20.7568 18.2322 20.8713 18.1341C20.9858 18.036 21.1218 17.9663 21.2683 17.9307C22.2439 17.6938 22.2439 16.3057 21.2683 16.0694C21.1217 16.0339 20.9856 15.9643 20.8711 15.8663C20.7565 15.7682 20.6667 15.6445 20.609 15.5052C20.5513 15.3658 20.5274 15.2149 20.5391 15.0645C20.5508 14.9142 20.5978 14.7688 20.6764 14.64C21.1989 13.7825 20.2176 12.8013 19.3601 13.3238C19.2314 13.4023 19.0859 13.4494 18.9356 13.4611C18.7852 13.4728 18.6343 13.4488 18.4949 13.3911C18.3556 13.3334 18.2319 13.2436 18.1338 13.1291C18.0358 13.0145 17.9662 12.8784 17.9307 12.7319L17.9313 12.7313Z" stroke="#7D7D7D"/>
<path d="M18.1111 17C18.1111 17.6137 17.6137 18.1111 17 18.1111C16.3864 18.1111 15.8889 17.6137 15.8889 17C15.8889 16.3864 16.3864 15.8889 17 15.8889C17.6137 15.8889 18.1111 16.3864 18.1111 17Z" stroke="#7D7D7D"/>
</g>
</g>
</svg>
